{"title":"[GR SUBS] Goodbye.Bafana.2007.DVDRip.720p.x264-GRRiPS","uid":8536206,"size":732571277,"categoryP":"video","categoryS":"movies_dvdr","magnet":"?xt=urn:btih:52a56fa2c4e2c4211fc8cf95771798752e607def&amp;dn=%5BGR+SUBS%5D+Goodbye.Bafana.2007.DVDRip.720p.x264-GRRiPS&amp;tr=udp%3A%2F%2Ftracker.openbittorrent.com%3A80&amp;tr=udp%3A%2F%2Fopen.demonii.com%3A1337&amp;tr=udp%3A%2F%2Ftracker.coppersurfer.tk%3A6969&amp;tr=udp%3A%2F%2Fexodus.desync.com%3A6969","seeders":0,"leechers":0,"uploader":"GRRiPS","files":-1,"time":1370275001,"description":"----------------------------------------------------------------------------\n** PLEASE BE ADVICED: DO NOT DOWNLOAD THIS IF YOU CAN'T SPEAK/READ GREEK **\n----------------------------------------------------------------------------\n\nGeneral\nComplete name                            : Goodbye.Bafana.2007.DVDRip.720p.x264-GRRiPS.mp4\nFormat                                   : MPEG-4\nFormat profile                           : Base Media\nCodec ID                                 : isom\nFile size                                : 699 MiB\nDuration                                 : 1h 53mn\nOverall bit rate mode                    : Variable\nOverall bit rate                         : 864 Kbps\n\nVideo\nID                                       : 1\nFormat                                   : AVC\nFormat/Info                              : Advanced Video Codec\nFormat profile                           : &lt;a class=&quot;__cf_email__&quot; href=&quot;/cdn-cgi/l/email-protection&quot; data-cfemail=&quot;b0f8d9d7d8f0fc849e80&quot;&gt;[email&amp;#160;protected]&lt;/a&gt;&lt;script cf-hash='f9e31' type=&quot;text/javascript&quot;&gt;\n/* &lt;![CDATA[ */!function(){try{var t=&quot;currentScript&quot;in document?document.currentScript:function(){for(var t=document.getElementsByTagName(&quot;script&quot;),e=t.length;e--;)if(t[e].getAttribute(&quot;cf-hash&quot;))return t[e]}();if(t&amp;&amp;t.previousSibling){var e,r,n,i,c=t.previousSibling,a=c.getAttribute(&quot;data-cfemail&quot;);if(a){for(e=&quot;&quot;,r=parseInt(a.substr(0,2),16),n=2;a.length-n;n+=2)i=parseInt(a.substr(n,2),16)^r,e+=String.fromCharCode(i);e=document.createTextNode(e),c.parentNode.replaceChild(e,c)}}}catch(u){}}();/* ]]&gt; */&lt;/script&gt;\nFormat settings, CABAC                   : Yes\nFormat settings, ReFrames                : 3 frames\nCodec ID                                 : avc1\nCodec ID/Info                            : Advanced Video Coding\nDuration                                 : 1h 53mn\nBit rate mode                            : Variable\nBit rate                                 : 733 Kbps\nMaximum bit rate                         : 25.0 Mbps\nWidth                                    : 1 280 pixels\nHeight                                   : 720 pixels\nDisplay aspect ratio                     : 16:9\nFrame rate mode                          : Constant\nFrame rate                               : 25.000 fps\nColor space                              : YUV\nChroma subsampling                       : 4:2:0\nBit depth                                : 8 bits\nScan type                                : Progressive\nBits/(Pixel*Frame)                       : 0.032\nStream size                              : 592 MiB (85%)\nWriting library                          : x264 core 129 r2245 bc13772\n\nAudio\nID                                       : 2\nFormat                                   : AAC\nFormat/Info                              : Advanced Audio Codec\nFormat profile                           : LC\nCodec ID                                 : 40\nDuration                                 : 1h 53mn\nBit rate mode                            : Variable\nBit rate                                 : 128 Kbps\nMaximum bit rate                         : 134 Kbps\nChannel(s)                               : 2 channels\nChannel positions                        : Front: L R\nSampling rate                            : 48.0 KHz\nCompression mode                         : Lossy\nStream size                              : 104 MiB (15%)\n\nDIKO MOU RIP.\n\nAPO EDW MPOREITE NA TO  KATEBASETE APO HOSTER, AN DEN 8ELETE NA PERIMENE TORRENT 'H EXEI XAMILI TAXITHTA! :D\n(APO TA LINK, DIAGRAPSTE TA KENA ALLIWS DEN ANNOIGEI H SELIDA)\n\nEPILOGH 1: a d  f.l y/ Py 14Z\nEPILOGh 2: a d f.l y/ Py 1l1\n\nFULL SCREENSHOTS: &lt;a href=&quot;\nhttp://bayimg.com/mANldaaEA&quot; rel=&quot;nofollow&quot; target=&quot;_NEW&quot;&gt;\nhttp://bayimg.com/mANldaaEA&lt;/a&gt;\n\nKALH PROBOLH KAI S E E D ! ! ! !","torrent":{"xt":"urn:btih:52a56fa2c4e2c4211fc8cf95771798752e607def","amp;dn":"%5BGR+SUBS%5D+Goodbye.Bafana.2007.DVDRip.720p.x264-GRRiPS","amp;tr":["udp%3A%2F%2Ftracker.openbittorrent.com%3A80","udp%3A%2F%2Fopen.demonii.com%3A1337","udp%3A%2F%2Ftracker.coppersurfer.tk%3A6969","udp%3A%2F%2Fexodus.desync.com%3A6969"],"infoHash":"52a56fa2c4e2c4211fc8cf95771798752e607def","infoHashBuffer":{"type":"Buffer","data":[82,165,111,162,196,226,196,33,31,200,207,149,119,23,152,117,46,96,125,239]},"announce":[],"urlList":[]}}